<svg width="84" height="84" viewBox="0 0 84 84" fill="none" xmlns="http://www.w3.org/2000/svg">
<path d="M64 30H20C16.6863 30 14 32.6863 14 36V56C14 59.3137 16.6863 62 20 62H64C67.3137 62 70 59.3137 70 56V36C70 32.6863 67.3137 30 64 30Z" stroke="url(#paint0_linear_134_2)" stroke-width="2.5"/>
<path d="M16 32L42 50L70 32" stroke="url(#paint1_linear_134_2)" stroke-width="2.5"/>
<path d="M58 14H26C23.7909 14 22 15.7909 22 18V22C22 24.2091 23.7909 26 26 26H58C60.2091 26 62 24.2091 62 22V18C62 15.7909 60.2091 14 58 14Z" fill="url(#paint2_linear_134_2)"/>
<path d="M27.5049 19.1553L27.7295 18.4619C28.2471 18.6442 28.623 18.8021 28.8574 18.9355C28.7956 18.3464 28.763 17.9411 28.7598 17.7197H29.4678C29.458 18.042 29.4206 18.4456 29.3555 18.9307C29.6908 18.7614 30.0749 18.6051 30.5078 18.4619L30.7324 19.1553C30.319 19.292 29.9137 19.3831 29.5166 19.4287C29.7152 19.6012 29.9951 19.9089 30.3564 20.3516L29.7705 20.7666C29.5817 20.5094 29.3587 20.1595 29.1016 19.7168C28.8607 20.1758 28.6491 20.5257 28.4668 20.7666L27.8906 20.3516C28.2682 19.8861 28.5384 19.5785 28.7012 19.4287C28.2812 19.3473 27.8825 19.2562 27.5049 19.1553ZM34.1846 19.1553L34.4092 18.4619C34.9268 18.6442 35.3027 18.8021 35.5371 18.9355C35.4753 18.3464 35.4427 17.9411 35.4395 17.7197H36.1475C36.1377 18.042 36.1003 18.4456 36.0352 18.9307C36.3704 18.7614 36.7546 18.6051 37.1875 18.4619L37.4121 19.1553C36.9987 19.292 36.5934 19.3831 36.1963 19.4287C36.3949 19.6012 36.6748 19.9089 37.0361 20.3516L36.4502 20.7666C36.2614 20.5094 36.0384 20.1595 35.7812 19.7168C35.5404 20.1758 35.3288 20.5257 35.1465 20.7666L34.5703 20.3516C34.9479 19.8861 35.2181 19.5785 35.3809 19.4287C34.9609 19.3473 34.5622 19.2562 34.1846 19.1553ZM40.8643 19.1553L41.0889 18.4619C41.6064 18.6442 41.9824 18.8021 42.2168 18.9355C42.1549 18.3464 42.1224 17.9411 42.1191 17.7197H42.8271C42.8174 18.042 42.7799 18.4456 42.7148 18.9307C43.0501 18.7614 43.4342 18.6051 43.8672 18.4619L44.0918 19.1553C43.6784 19.292 43.2731 19.3831 42.876 19.4287C43.0745 19.6012 43.3545 19.9089 43.7158 20.3516L43.1299 20.7666C42.9411 20.5094 42.7181 20.1595 42.4609 19.7168C42.2201 20.1758 42.0085 20.5257 41.8262 20.7666L41.25 20.3516C41.6276 19.8861 41.8978 19.5785 42.0605 19.4287C41.6406 19.3473 41.2419 19.2562 40.8643 19.1553ZM47.5439 19.1553L47.7686 18.4619C48.2861 18.6442 48.6621 18.8021 48.8965 18.9355C48.8346 18.3464 48.8021 17.9411 48.7988 17.7197H49.5068C49.4971 18.042 49.4596 18.4456 49.3945 18.9307C49.7298 18.7614 50.1139 18.6051 50.5469 18.4619L50.7715 19.1553C50.3581 19.292 49.9528 19.3831 49.5557 19.4287C49.7542 19.6012 50.0342 19.9089 50.3955 20.3516L49.8096 20.7666C49.6208 20.5094 49.3978 20.1595 49.1406 19.7168C48.8997 20.1758 48.6882 20.5257 48.5059 20.7666L47.9297 20.3516C48.3073 19.8861 48.5775 19.5785 48.7402 19.4287C48.3203 19.3473 47.9215 19.2562 47.5439 19.1553ZM54.2236 19.1553L54.4482 18.4619C54.9658 18.6442 55.3418 18.8021 55.5762 18.9355C55.5143 18.3464 55.4818 17.9411 55.4785 17.7197H56.1865C56.1768 18.042 56.1393 18.4456 56.0742 18.9307C56.4095 18.7614 56.7936 18.6051 57.2266 18.4619L57.4512 19.1553C57.0378 19.292 56.6325 19.3831 56.2354 19.4287C56.4339 19.6012 56.7139 19.9089 57.0752 20.3516L56.4893 20.7666C56.3005 20.5094 56.0775 20.1595 55.8203 19.7168C55.5794 20.1758 55.3678 20.5257 55.1855 20.7666L54.6094 20.3516C54.987 19.8861 55.2572 19.5785 55.4199 19.4287C55 19.3473 54.6012 19.2562 54.2236 19.1553Z" fill="white"/>
<defs>
<linearGradient id="paint0_linear_134_2" x1="16" y1="32.5" x2="65.5" y2="65.5" gradientUnits="userSpaceOnUse">
<stop stop-color="#0EBB7E"/>
<stop offset="1" stop-color="#016B45"/>
</linearGradient>
<linearGradient id="paint1_linear_134_2" x1="14.5" y1="32" x2="70" y2="62.5" gradientUnits="userSpaceOnUse">
<stop stop-color="#0EBB7E"/>
<stop offset="1" stop-color="#016B45"/>
</linearGradient>
<linearGradient id="paint2_linear_134_2" x1="22" y1="20" x2="62" y2="20" gradientUnits="userSpaceOnUse">
<stop stop-color="#0EBB7E"/>
<stop offset="1" stop-color="#016B45"/>
</linearGradient>
</defs>
</svg>
