<svg width="1415" height="234" viewBox="0 0 1415 234" fill="none" xmlns="http://www.w3.org/2000/svg">
<path d="M698.202 112.242C695.394 120.479 694.755 124.067 693.71 124.067C692.306 124.067 692.867 124.816 691.994 115.05C690.434 97.3756 680.606 97.6252 677.782 85.1296C674.631 71.152 685.66 57.0184 691.401 37.3936C695.878 54.9904 708.733 60.6844 711.353 74.818C713.647 87.2044 703.304 97.3132 698.202 112.242Z" fill="#0EB77E"/>
<path d="M734.971 133.895C729.184 144.394 720.432 160.696 708.03 162.178C698.608 163.301 693.397 159.838 692.789 152.35C692.04 143.333 695.456 132.116 711.79 133.895C720.214 134.815 731.102 135.923 734.971 133.895Z" fill="#0EB77E"/>
<path d="M395 168.324C419.18 168.324 455.434 154.05 482.89 175.422C513.825 199.509 537.225 180.976 564.322 182.692C597.238 184.782 604.196 211.817 594.805 211.661C588.518 211.568 586.927 201.069 599.672 190.508C618.252 175.11 651.355 199.4 674.708 195.905C705.643 191.256 693.927 161.008 694.426 150.743C694.957 139.808 700.432 133.895 713.006 134.909C721.461 135.58 731.118 135.923 734.986 133.895C729.199 144.394 719.776 161.679 706.579 162.428C696.267 163.02 691.119 159.339 690.027 146.079C689.216 136.266 691.774 131.103 698.233 112.227C703.318 97.3132 713.661 87.2044 711.368 74.818C708.747 60.6844 695.893 54.9904 691.416 37.3936C685.675 57.0184 675.223 65.5984 678.374 79.5916C681.198 92.0872 691.618 95.2228 693.178 112.882C694.77 130.916 685.846 129.73 689.169 151.414C691.182 164.549 695.394 201.1 734.986 204.501C769.681 207.48 775.874 180.071 810.319 184.751C843.391 189.228 850.723 168.356 850.255 155.907C849.818 144.082 840.848 145.127 841.472 154.612C842.236 166.14 860.956 188.168 897.632 189.884C947.334 192.192 990.374 164.487 1019 164.487" stroke="#253D4E" stroke-linejoin="round"/>
<path d="M1019 164.5H1415" stroke="#253D4E"/>
<path d="M0 168.3H396" stroke="#253D4E"/>
</svg>
